<svg id="Layer_1" data-name="Layer 1" xmlns="http://www.w3.org/2000/svg" xmlns:xlink="http://www.w3.org/1999/xlink" viewBox="0 0 140 30"><defs><style>.cls-1{fill:url(#linear-gradient);}.cls-2{fill:url(#linear-gradient-2);}.cls-3{fill:url(#linear-gradient-3);}.cls-4{fill:#fff;}</style><linearGradient id="linear-gradient" x1="14.9" y1="36.6" x2="27.57" y2="19.52" gradientTransform="translate(11.97 56.4) rotate(-116.78)" gradientUnits="userSpaceOnUse"><stop offset="0" stop-color="#4ad295"/><stop offset="0.2" stop-color="#43c98c"/><stop offset="0.53" stop-color="#2fb074"/><stop offset="0.94" stop-color="#10884c"/><stop offset="1" stop-color="#0b8246"/></linearGradient><linearGradient id="linear-gradient-2" x1="32.67" y1="39.69" x2="32.67" y2="8.95" gradientTransform="translate(11.97 56.4) rotate(-116.78)" gradientUnits="userSpaceOnUse"><stop offset="0" stop-color="#0b8246"/><stop offset="0.35" stop-color="#4ad295"/></linearGradient><linearGradient id="linear-gradient-3" x1="21.24" y1="29.86" x2="31.76" y2="35.8" gradientTransform="translate(11.97 56.4) rotate(-116.78)" gradientUnits="userSpaceOnUse"><stop offset="0" stop-color="#4ad295"/><stop offset="1" stop-color="#0b8246"/></linearGradient></defs><path class="cls-1" d="M13.86,28.67a18.69,18.69,0,0,0,4.61.95H34.93A4.74,4.74,0,0,0,39.26,23a6,6,0,0,0-5.57-3.44l-18.61-.11S12.24,28,13.86,28.67Z"/><path class="cls-2" d="M18.47,29.62a2,2,0,0,1-1.88-3.21l5.05-6.93L23.45,17l2.85-3.91a5,5,0,0,1,8.55.73L29.63,3.47a5,5,0,0,0-8.55-.72L7.31,21.65a5,5,0,0,0,4,7.9Z"/><path class="cls-3" d="M23.45,17l4.14,8.19a1.19,1.19,0,0,0,2,.17l4.8-6.44a5,5,0,1,0-8.11-5.83Z"/><path class="cls-4" d="M60.89,25.12H50.17V6.4H55V21h5.86Z"/><path class="cls-4" d="M68.25,25.12H63.39V6.4h4.86Z"/><path class="cls-4" d="M90.86,25.12H86L77,13.65V25.12H72.18V6.4H77l9,11.44V6.4h4.86Z"/><path class="cls-4" d="M105.45,25.12H94.79V6.4h10.66v4.08h-5.8v3.17h5.46v4.07H99.65V21h5.8Z"/><path class="cls-4" d="M124.86,17.21a15.75,15.75,0,0,1-.11,1.91,7.66,7.66,0,0,1-.36,1.6,5.83,5.83,0,0,1-.71,1.41,9,9,0,0,1-1.15,1.33,8.46,8.46,0,0,1-6.07,2.14c-2.67,0-4.67-.67-6-2s-2-3.47-2-6.37V6.4h4.86V16.54a16.31,16.31,0,0,0,.07,1.68,5.44,5.44,0,0,0,.24,1.25,2.39,2.39,0,0,0,.52.91,3.08,3.08,0,0,0,1,.63,2.84,2.84,0,0,0,.74.26,3.56,3.56,0,0,0,.71.07,4.54,4.54,0,0,0,1.37-.19,2.37,2.37,0,0,0,1.07-.71,3.5,3.5,0,0,0,.69-1.45,9.6,9.6,0,0,0,.25-2.45V6.4h4.86Z"/><path class="cls-4" d="M133.64,25.12h-4.86V6.4h4.86Z"/></svg>